<?xml version="1.0" encoding="UTF-8" standalone="no"?>
<svg width="106px" height="63px" viewBox="0 0 106 63" version="1.1" xmlns="http://www.w3.org/2000/svg" xmlns:xlink="http://www.w3.org/1999/xlink">
    <!-- Generator: Sketch 41.2 (35397) - http://www.bohemiancoding.com/sketch -->
    <title>5</title>
    <desc>Created with Sketch.</desc>
    <defs></defs>
    <g id="Page-1" stroke="none" stroke-width="1" fill="none" fill-rule="evenodd">
        <g id="potatosimple" transform="translate(-57.000000, 35.000000) rotate(90.000000) translate(57.000000, -35.000000) translate(-128.000000, -267.000000)" fill="#696969">
            <g id="5" transform="translate(13.000000, 132.000000)">
                <path d="M57.9443939,112.220316 C57.4312449,112.220316 56.9133002,112.209483 56.380968,112.18902 C56.2802565,112.193834 56.0404673,112.196242 55.6795845,112.196242 C50.8694122,112.196242 22.3608122,113.48709 16.8600469,93.7125926 C11.6122592,74.8432825 23.0243196,61.3602118 32.62668,47.1263771 C37.153901,40.419322 40.883389,9.22031601 56.1831419,9.22031601 C61.9033144,9.22031601 68.6790964,8.30082728 73.8453557,12.6967651 C95.6841614,31.2856115 84.9274963,49.2001614 82.0656116,61.0049154 C81.56685,63.064458 72.8529316,75.6731843 72.3697563,78.1094872 C69.3040508,93.5566585 81.3274423,112.220316 57.9443939,112.220316 Z M69.7992156,77.5955043 C70.2871867,75.1327199 79.0082987,62.4975121 79.5214477,60.3850064 C82.2382599,49.168865 92.9157945,32.3785774 72.1512447,14.7033445 C67.4717576,10.721482 61.2666739,11.8516194 56.1831419,11.8516194 C48.6124317,11.8516194 44.0218696,20.5880627 40.8851829,29.6158211 C38.0385661,37.8087236 36.3893594,46.2415527 34.7967727,48.6021219 C26.9676538,60.2058569 12.4335374,70.7374381 18.6584663,93.1107392 C23.6484805,111.055602 51.2027193,109.566142 55.6795845,109.566142 C56.0932209,109.566142 56.3222197,109.55892 56.336607,109.55892 C78.991895,110.490589 66.6783585,93.3147134 69.7992156,77.5955043 Z" id="Shape" transform="translate(51.389297, 60.680321) rotate(-19.000000) translate(-51.389297, -60.680321) "></path>
                <path d="M40.9373458,85.2186734 C42.0513013,85.1502475 42.9624413,84.301516 42.9746645,83.3229788 C42.9881197,82.3444415 42.1235278,81.6066506 41.0413141,81.6750766 C39.9578685,81.7435025 39.0411148,82.592234 38.995918,83.5707712 C38.951953,84.5493085 39.8221584,85.2870994 40.9373458,85.2186734 Z" id="Oval"></path>
                <path d="M59.6089029,87.5330971 C61.0453805,87.4456708 62.0609899,86.361267 61.8809712,85.1110133 C61.7029634,83.8607596 60.4391222,82.9181017 59.0544616,83.0055279 C57.66779,83.0929542 56.6430166,84.177358 56.7692073,85.4276117 C56.8974091,86.6778654 58.1704143,87.6205233 59.6089029,87.5330971 Z" id="Oval"></path>
                <path d="M61.3237638,62.0777986 C62.3976183,61.9955372 63.1176344,60.9751959 62.9351884,59.7988025 C62.7545229,58.6224091 61.7773363,57.7354399 60.7493574,57.8177014 C59.7195981,57.8999628 58.9914688,58.9203041 59.1262588,60.0966975 C59.2628291,61.2730909 60.248129,62.1600601 61.3237638,62.0777986 Z" id="Oval"></path>
                <path d="M51.6193378,49.1713004 C52.4030611,49.1029057 53.0023911,48.2545626 52.9602074,47.276473 C52.9192543,46.2983833 52.2782369,45.5609299 51.5262263,45.6293246 C50.772985,45.6977193 50.1680465,46.5460624 50.1772868,47.524152 C50.1877578,48.5022417 50.8343838,49.2396951 51.6193378,49.1713004 Z" id="Oval"></path>
                <path d="M51.2784266,73.2057433 C52.8687943,73.0969065 54.0650752,71.7469344 53.9560376,70.1904961 C53.8501167,68.6340578 52.5446773,67.4605449 51.0346141,67.5693817 C49.5214343,67.6782185 48.3109514,69.0281906 48.3365678,70.5846289 C48.3653008,72.1410672 49.6849423,73.3145801 51.2784266,73.2057433 Z" id="Oval"></path>
                <path d="M62.9623337,95.0850153 C64.1107484,95.0190309 64.9123152,94.2005836 64.7547574,93.2569621 C64.5983451,92.3133406 63.5661836,91.6018752 62.4472859,91.6678597 C61.3272426,91.7338441 60.5204556,92.5522914 60.6473509,93.4959129 C60.7753917,94.4395344 61.8127734,95.1509998 62.9623337,95.0850153 Z" id="Oval"></path>
                <path d="M67.2941973,80.2859245 C67.9678062,80.242227 68.4129114,79.7002192 68.2892772,79.0753162 C68.1661454,78.4504132 67.5314908,77.979253 66.8708269,78.0229505 C66.2096605,78.066648 65.7622659,78.6086558 65.8724528,79.2335588 C65.983142,79.8584618 66.6200859,80.329622 67.2941973,80.2859245 Z" id="Oval"></path>
            </g>
        </g>
    </g>
</svg>