<?xml version="1.0" encoding="UTF-8" standalone="no"?>
<svg width="67px" height="74px" viewBox="0 0 67 74" version="1.1" xmlns="http://www.w3.org/2000/svg" xmlns:xlink="http://www.w3.org/1999/xlink">
    <!-- Generator: Sketch 41.2 (35397) - http://www.bohemiancoding.com/sketch -->
    <title>4</title>
    <desc>Created with Sketch.</desc>
    <defs></defs>
    <g id="Page-1" stroke="none" stroke-width="1" fill="none" fill-rule="evenodd">
        <g id="potatosimple" transform="translate(-219.500000, 41.500000) rotate(90.000000) translate(219.500000, -41.500000) translate(-286.000000, -259.000000)" fill="#696969">
            <g id="4" transform="translate(62.699219, 48.285156) rotate(-90.000000) translate(-62.699219, -48.285156) translate(15.199219, 3.285156)">
                <path d="M59.0748238,78.853042 C58.5616748,78.853042 58.04373,78.8444057 57.5113979,78.8280925 C57.4106864,78.8319309 57.1708971,78.8338501 56.8100143,78.8338501 C51.999842,78.8338501 15.8122014,79.986151 10.3114361,64.2218509 C5.06364845,49.1791696 18.7601921,48.9151784 28.3625525,37.5679147 C32.8897735,32.2210264 35.9254801,10.711065 51.225233,10.711065 C56.9454054,10.711065 63.7211875,9.97804528 68.8874468,13.4825025 C90.7262524,28.3015971 86.0579261,28.6131502 83.1960415,38.0239422 C82.6972798,39.6658169 73.9833615,49.7175385 73.5001861,51.6597678 C70.4344806,63.9743078 82.4578721,78.853042 59.0748238,78.853042 Z M70.9296454,51.2500188 C71.4176165,49.2866783 80.1387286,39.2138456 80.6518776,37.5297485 C83.3686897,28.5882007 87.9578856,29.1729135 67.1933358,15.0821549 C62.5138486,11.9077998 56.308765,12.8087494 51.225233,12.8087494 C43.6545227,12.8087494 41.83129,13.3664216 38.6946033,20.5633827 C35.8479865,27.0947937 30.7158657,37.1508295 29.123279,39.0326836 C21.2941601,48.2832225 8.83701498,45.3067369 12.1098555,63.7420512 C14.5731243,77.6171961 52.3331491,76.7371252 56.8100143,76.7371252 C57.2236508,76.7371252 57.4526495,76.7313676 57.4670369,76.7313676 C80.1223249,77.4740976 67.8087884,63.7814283 70.9296454,51.2500188 Z" id="Shape" transform="translate(47.419941, 44.750169) rotate(-19.000000) translate(-47.419941, -44.750169) "></path>
                <path d="M38.9373458,56.3841695 C40.0513013,56.3296201 40.9624413,55.6530084 40.9746645,54.872915 C40.9881197,54.0928216 40.1235278,53.504652 39.0413141,53.5592015 C37.9578685,53.6137509 37.0411148,54.2903626 36.995918,55.070456 C36.951953,55.8505494 37.8221584,56.438719 38.9373458,56.3841695 Z" id="Oval"></path>
                <path d="M57.6089029,58.2292363 C59.0453805,58.1595398 60.0609899,57.2950492 59.8809712,56.2983425 C59.7029634,55.3016358 58.4391222,54.5501455 57.0544616,54.619842 C55.66779,54.6895386 54.6430166,55.5540292 54.7692073,56.5507359 C54.8974091,57.5474426 56.1704143,58.2989328 57.6089029,58.2292363 Z" id="Oval"></path>
                <path d="M59.3237638,37.9361817 C60.3976183,37.8706026 61.1176344,37.0571828 60.9351884,36.1193578 C60.7545229,35.1815328 59.7773363,34.4744379 58.7493574,34.540017 C57.7195981,34.6055961 56.9914688,35.4190158 57.1262588,36.3568408 C57.2628291,37.2946658 58.248129,38.0017608 59.3237638,37.9361817 Z" id="Oval"></path>
                <path d="M49.6193378,27.6470753 C50.4030611,27.5925508 51.0023911,26.9162487 50.9602074,26.1365121 C50.9192543,25.3567756 50.2782369,24.7688751 49.5262263,24.8233996 C48.772985,24.877924 48.1680465,25.5542262 48.1772868,26.3339628 C48.1877578,27.1136993 48.8343838,27.7015998 49.6193378,27.6470753 Z" id="Oval"></path>
                <path d="M49.2784266,46.8074188 C50.8687943,46.7206538 52.0650752,45.6444512 51.9560376,44.403653 C51.8501167,43.1628549 50.5446773,42.2273262 49.0346141,42.3140913 C47.5214343,42.4008563 46.3109514,43.4770589 46.3365678,44.7178571 C46.3653008,45.9586552 47.6849423,46.8941839 49.2784266,46.8074188 Z" id="Oval"></path>
                <path d="M60.9623337,64.2496524 C62.1107484,64.1970494 62.9123152,63.5445803 62.7547574,62.7923219 C62.5983451,62.0400635 61.5661836,61.4728807 60.4472859,61.5254838 C59.3272426,61.5780868 58.5204556,62.2305559 58.6473509,62.9828143 C58.7753917,63.7350727 59.8127734,64.3022555 60.9623337,64.2496524 Z" id="Oval"></path>
                <path d="M65.2941973,52.4517645 C65.9678062,52.4169287 66.4129114,51.9848382 66.2892772,51.4866633 C66.1661454,50.9884883 65.5314908,50.6128778 64.8708269,50.6477135 C64.2096605,50.6825493 63.7622659,51.1146399 63.8724528,51.6128148 C63.983142,52.1109897 64.6200859,52.4866003 65.2941973,52.4517645 Z" id="Oval"></path>
            </g>
        </g>
    </g>
</svg>