<?xml version="1.0" encoding="UTF-8" standalone="no"?>
<svg width="100px" height="62px" viewBox="0 0 100 62" version="1.1" xmlns="http://www.w3.org/2000/svg" xmlns:xlink="http://www.w3.org/1999/xlink">
    <!-- Generator: Sketch 41.2 (35397) - http://www.bohemiancoding.com/sketch -->
    <title>2</title>
    <desc>Created with Sketch.</desc>
    <defs></defs>
    <g id="Page-1" stroke="none" stroke-width="1" fill="none" fill-rule="evenodd">
        <g id="potatosimple" transform="translate(201.000000, 38.000000) rotate(90.000000) translate(-201.000000, -38.000000) translate(130.000000, -264.000000)" fill="#696969">
            <g id="2" transform="translate(15.000000, 394.000000)">
                <path d="M48.7150016,110.769531 C48.2018526,110.769531 47.6839079,110.758698 47.1515757,110.738235 C47.0508642,110.74305 46.811075,110.745457 46.4501922,110.745457 C41.6400199,110.745457 23.8744683,106.648164 18.373703,86.8736664 C13.1259153,68.0043563 13.7949273,59.9094271 23.3972877,45.6755924 C27.9245087,38.9685373 31.6539967,7.76953125 46.9537496,7.76953125 C52.6739221,7.76953125 58.1926716,10.0000002 63.3589309,14.395938 C85.1977365,32.9847844 77.1328589,50.4109755 74.2709743,62.2157296 C73.7722126,64.2752722 70.5842146,77.7291047 70.1010393,80.1654076 C67.0353338,95.6125789 72.09805,110.769531 48.7150016,110.769531 Z M67.5304986,79.6514247 C68.0184697,77.1886403 71.2136614,63.7083262 71.7268104,61.5958205 C74.4436225,50.3796791 82.4293697,34.0777503 61.6648199,16.4025175 C56.9853327,12.4206549 52.0372816,10.4008346 46.9537496,10.4008346 C39.3830394,10.4008346 34.7924773,19.137278 31.6557906,28.1650363 C28.8091738,36.3579388 27.1599671,44.7907679 25.5673804,47.1513371 C17.7382615,58.7550721 13.9471935,63.8985119 20.1721224,86.271813 C25.1621366,104.216676 41.973327,108.115357 46.4501922,108.115357 C46.8638286,108.115357 47.0928274,108.108135 47.1072147,108.108135 C69.7625027,109.039804 64.4096415,95.3706338 67.5304986,79.6514247 Z" id="Shape" transform="translate(46.609375, 59.269531) rotate(-19.000000) translate(-46.609375, -59.269531) "></path>
                <circle id="Oval" cx="35.64" cy="72.55" r="2.186"></circle>
                <circle id="Oval" cx="55.793" cy="74.793" r="2.793"></circle>
                <circle id="Oval" cx="59.628" cy="43.628" r="2.628"></circle>
                <circle id="Oval" cx="46.185" cy="28.185" r="2.185"></circle>
                <circle id="Oval" cx="46.477" cy="56.477" r="3.477"></circle>
                <circle id="Oval" cx="58.877" cy="84.771" r="2.108"></circle>
                <circle id="Oval" cx="64.966" cy="67.267" r="1.396"></circle>
            </g>
        </g>
    </g>
</svg>