<?xml version="1.0" encoding="UTF-8" standalone="no"?>
<svg width="64px" height="44px" viewBox="0 0 64 44" version="1.1" xmlns="http://www.w3.org/2000/svg" xmlns:xlink="http://www.w3.org/1999/xlink">
    <!-- Generator: Sketch 41.2 (35397) - http://www.bohemiancoding.com/sketch -->
    <title>noun_730268_cc</title>
    <desc>Created with Sketch.</desc>
    <defs></defs>
    <g id="Page-1" stroke="none" stroke-width="1" fill="none" fill-rule="evenodd">
        <g id="noun_730268_cc" fill="#FFFFFF">
            <path d="M47,8 C43.2,8 40.5,6.5 37.5,4.7 C33.7,2.5 29.4,0 22,0 C13.5,0 0,5.7 0,21 C0,35.6 11.7,44 32,44 C53.2,44 64,37.6 64,25 C64,15.5 56.5,8 47,8 Z M32,42 C20.8,42 2,39.3 2,21 C2,7.2 14.3,2 22,2 C28.8,2 32.7,4.2 36.5,6.4 C39.6,8.3 42.6,10 47,10 C55.4,10 62,16.6 62,25 C62,36.4 52.2,42 32,42 Z M22,7 C17.2,7 12.6,9.2 9.8,12.9 C9.6,13.2 8.8,13.4 8.4,13.1 C8,12.8 7.9,12.1 8.2,11.7 C11.4,7.5 16.6,5 22,5 C22.6,5 23,5.4 23,6 C23,6.6 22.6,7 22,7 Z M7.9,16.4 C7.3,17.9 7,19.4 7,21 C7,21.6 6.6,22 6,22 C5.4,22 5,21.6 5,21 C5,19.2 5.3,17.4 6,15.6 C6.2,15.1 6.8,14.8 7.3,15 C7.8,15.3 8.1,15.8 7.9,16.4 Z M17.8,14.3 C18.7,15.3 19,16.4 19,18 C19,19.6 18.6,20.7 17.7,21.7 C17.3,22.1 16.7,22.1 16.3,21.8 C15.9,21.4 15.9,20.8 16.2,20.4 C16.7,19.9 16.9,19.3 16.9,18.1 C16.9,17 16.9,16.3 16.2,15.7 C15.8,15.4 15.9,14.6 16.3,14.2 C16.7,13.8 17.4,13.9 17.8,14.3 Z M30.8,10.3 C31.7,11.3 32,12.4 32,14 C32,15.6 31.6,16.7 30.7,17.7 C30.3,18.1 29.7,18.1 29.3,17.8 C28.9,17.4 28.9,16.8 29.2,16.4 C29.7,15.9 29.9,15.3 29.9,14.1 C29.9,13 29.9,12.3 29.2,11.7 C28.8,11.4 28.9,10.6 29.3,10.2 C29.7,9.8 30.4,9.9 30.8,10.3 Z M43.8,14.3 C44.7,15.3 45,16.4 45,18 C45,19.6 44.6,20.7 43.7,21.7 C43.3,22.1 42.7,22.1 42.3,21.8 C41.9,21.4 41.9,20.8 42.2,20.4 C42.7,19.9 42.9,19.3 42.9,18.1 C42.9,17 42.9,16.3 42.2,15.7 C41.8,15.4 41.9,14.6 42.3,14.2 C42.7,13.8 43.4,13.9 43.8,14.3 Z M23.8,26.3 C24.7,27.3 25,28.4 25,30 C25,31.6 24.6,32.7 23.7,33.7 C23.3,34.1 22.7,34.1 22.3,33.8 C21.9,33.4 21.9,32.8 22.2,32.4 C22.7,31.9 22.9,31.3 22.9,30.1 C22.9,29 22.9,28.3 22.2,27.7 C21.8,27.4 21.9,26.6 22.3,26.2 C22.7,25.8 23.4,25.9 23.8,26.3 Z M35.8,29.3 C36.7,30.3 37,31.4 37,33 C37,34.6 36.6,35.7 35.7,36.7 C35.3,37.1 34.7,37.1 34.3,36.8 C33.9,36.4 33.9,35.8 34.2,35.4 C34.7,34.9 34.9,34.3 34.9,33.1 C34.9,32 34.9,31.3 34.2,30.7 C33.8,30.4 33.9,29.6 34.3,29.2 C34.7,28.8 35.4,28.9 35.8,29.3 Z M50.8,27.3 C51.7,28.3 52,29.4 52,31 C52,32.6 51.6,33.7 50.7,34.7 C50.3,35.1 49.7,35.1 49.3,34.8 C48.9,34.4 48.9,33.8 49.2,33.4 C49.7,32.9 49.9,32.3 49.9,31.1 C49.9,30 49.9,29.3 49.2,28.7 C48.8,28.4 48.9,27.6 49.3,27.2 C49.7,26.8 50.4,26.9 50.8,27.3 Z" id="Shape"></path>
        </g>
    </g>
</svg>