<?xml version="1.0" encoding="UTF-8" standalone="no"?>
<svg width="88px" height="75px" viewBox="0 0 88 75" version="1.1" xmlns="http://www.w3.org/2000/svg" xmlns:xlink="http://www.w3.org/1999/xlink">
    <!-- Generator: Sketch 41.2 (35397) - http://www.bohemiancoding.com/sketch -->
    <title>3</title>
    <desc>Created with Sketch.</desc>
    <defs></defs>
    <g id="Page-1" stroke="none" stroke-width="1" fill="none" fill-rule="evenodd">
        <g id="potatosimple" transform="translate(50.500000, 40.500000) rotate(90.000000) translate(-50.500000, -40.500000) translate(-17.000000, -260.000000)" fill="#696969">
            <g id="3" transform="translate(67.551484, 302.723898) rotate(53.000000) translate(-67.551484, -302.723898) translate(21.551484, 253.223898)">
                <path d="M43.7028104,88.4797044 C43.1403636,88.4797044 42.5726603,88.4694335 41.9891874,88.4500329 C41.8788006,88.4545978 41.615975,88.4568802 41.2204225,88.4568802 C35.9481406,88.4568802 21.0246214,92.6342027 14.9954018,73.8863741 C9.24346314,55.9967368 11.2988084,51.456519 21.8236603,37.9616886 C26.7858079,31.6028561 23.2077727,9.57497897 39.9773612,9.57497897 C46.2470663,9.57497897 52.1302913,10.4515217 57.7928692,14.6192274 C81.7297123,32.2429624 78.84987,43.8135367 75.7130463,55.0054015 C75.166369,56.958015 80.6103856,76.4956353 80.080792,78.8054481 C76.7205665,93.45062 69.3322505,88.4797044 43.7028104,88.4797044 Z M77.2633014,78.3181506 C77.7981515,75.9832311 72.3620196,56.4205042 72.9244665,54.4176774 C75.9022807,43.7838652 78.6953905,33.2791828 55.9360062,16.5216276 C50.8069643,12.7464988 45.5492643,12.0696681 39.9773612,12.0696681 C31.6793386,12.0696681 34.2592452,13.103213 30.8212194,21.6622605 C27.7011304,29.4297969 25.9478174,37.1228033 24.2022321,39.3608144 C15.6209757,50.3620968 10.1436409,52.1040631 16.9665939,73.3157681 C22.435995,90.3289547 36.3134682,85.9633323 41.2204225,85.9633323 C41.6737966,85.9633323 41.9247951,85.956485 41.9405646,85.956485 C66.772329,86.839783 73.842626,93.2212365 77.2633014,78.3181506 Z" id="Shape" transform="translate(45.983306, 49.433718) rotate(-19.000000) translate(-45.983306, -49.433718) "></path>
                <ellipse id="Oval" cx="35.7679623" cy="63.3033621" rx="2.39600736" ry="2.0725054"></ellipse>
                <ellipse id="Oval" cx="57.8570457" cy="65.4299082" rx="3.06132139" ry="2.64799066"></ellipse>
                <ellipse id="Oval" cx="62.0604712" cy="35.8829591" rx="2.88046996" ry="2.49155727"></ellipse>
                <ellipse id="Oval" cx="47.3260124" cy="21.2417418" rx="2.39491129" ry="2.07155732"></ellipse>
                <ellipse id="Oval" cx="47.6460646" cy="48.0648538" rx="3.81103275" ry="3.29647817"></ellipse>
                <ellipse id="Oval" cx="61.2373232" cy="74.8898619" rx="2.31051396" ry="1.99855507"></ellipse>
                <ellipse id="Oval" cx="67.9112888" cy="58.2946494" rx="1.53011266" ry="1.32352129"></ellipse>
            </g>
        </g>
    </g>
</svg>